<svg width="37" height="34" viewBox="0 0 37 34" fill="none" xmlns="http://www.w3.org/2000/svg">
<g filter="url(#filter0_d_1_4419)">
<path d="M20.9308 17.4324L21.968 18.8521C22.0653 19.0062 22.2524 19.075 22.4232 19.014C23.0677 18.7838 24.6653 18.1598 25.9807 17.2099C26.0833 17.1358 26.1425 17.0123 26.1417 16.8849C26.1417 9.81456 24.1383 7.80987 24.1383 7.80987C24.1383 7.80987 22.5346 6.88942 20.8137 6.61188C20.6444 6.58457 20.4785 6.67529 20.4033 6.83071L20.0464 7.56672C20.0464 7.56672 19.1542 7.38004 18.1236 7.38004C17.0929 7.38004 16.2008 7.56672 16.2008 7.56672L15.844 6.83071C15.7686 6.67529 15.6029 6.58457 15.4335 6.61188C13.7139 6.88921 12.1102 7.80987 12.1102 7.80987C12.1102 7.80987 10.1055 9.81456 10.1055 16.8849C10.1047 17.0123 10.1639 17.1358 10.2665 17.2099C11.5819 18.1598 13.1795 18.7838 13.824 19.014C13.9948 19.075 14.1819 19.0062 14.2793 18.8521L15.3177 17.4324" fill="#7B61FF"/>
</g>
<path d="M22.332 13.0221C22.332 13.9078 21.7037 14.6258 20.9287 14.6258C20.1537 14.6258 19.5254 13.9078 19.5254 13.0221C19.5254 12.1363 20.1537 11.4183 20.9287 11.4183C21.7037 11.4183 22.332 12.1363 22.332 13.0221Z" fill="white"/>
<path d="M16.7187 13.0221C16.7187 13.9078 16.0904 14.6258 15.3154 14.6258C14.5404 14.6258 13.9121 13.9078 13.9121 13.0221C13.9121 12.1363 14.5404 11.4183 15.3154 11.4183C16.0904 11.4183 16.7187 12.1363 16.7187 13.0221Z" fill="white"/>
<defs>
<filter id="filter0_d_1_4419" x="0.105469" y="0.607056" width="36.0364" height="32.4291" filterUnits="userSpaceOnUse" color-interpolation-filters="sRGB">
<feFlood flood-opacity="0" result="BackgroundImageFix"/>
<feColorMatrix in="SourceAlpha" type="matrix" values="0 0 0 0 0 0 0 0 0 0 0 0 0 0 0 0 0 0 127 0" result="hardAlpha"/>
<feOffset dy="4"/>
<feGaussianBlur stdDeviation="5"/>
<feComposite in2="hardAlpha" operator="out"/>
<feColorMatrix type="matrix" values="0 0 0 0 1 0 0 0 0 1 0 0 0 0 1 0 0 0 0.12 0"/>
<feBlend mode="normal" in2="BackgroundImageFix" result="effect1_dropShadow_1_4419"/>
<feBlend mode="normal" in="SourceGraphic" in2="effect1_dropShadow_1_4419" result="shape"/>
</filter>
</defs>
</svg>
