<svg width="18" height="16" viewBox="0 0 18 16" fill="none" xmlns="http://www.w3.org/2000/svg">
<path d="M16.2042 0.583496L9.96094 5.22047L11.1155 2.48472L16.2042 0.583496Z" fill="#E2761B" stroke="#E2761B" stroke-width="1.07998" stroke-linecap="round" stroke-linejoin="round"/>
<path d="M1.79053 0.583496L7.98362 5.2644L6.88555 2.48472L1.79053 0.583496Z" fill="#E4761B" stroke="#E4761B" stroke-width="1.07998" stroke-linecap="round" stroke-linejoin="round"/>
<path d="M13.9582 11.3319L12.2954 13.8794L15.8531 14.8583L16.8759 11.3884L13.9582 11.3319Z" fill="#E4761B" stroke="#E4761B" stroke-width="1.07998" stroke-linecap="round" stroke-linejoin="round"/>
<path d="M1.13281 11.3885L2.14931 14.8584L5.70704 13.8795L4.04426 11.332L1.13281 11.3885Z" fill="#E4761B" stroke="#E4761B" stroke-width="1.07998" stroke-linecap="round" stroke-linejoin="round"/>
<path d="M5.50556 7.02748L4.51416 8.52712L8.0468 8.68399L7.9213 4.88782L5.50556 7.02748Z" fill="#E4761B" stroke="#E4761B" stroke-width="1.07998" stroke-linecap="round" stroke-linejoin="round"/>
<path d="M12.4896 7.02758L10.0425 4.84399L9.96094 8.68409L13.4873 8.52722L12.4896 7.02758Z" fill="#E4761B" stroke="#E4761B" stroke-width="1.07998" stroke-linecap="round" stroke-linejoin="round"/>
<path d="M5.7063 13.8795L7.82714 12.8442L5.99493 11.4136L5.7063 13.8795Z" fill="#E4761B" stroke="#E4761B" stroke-width="1.07998" stroke-linecap="round" stroke-linejoin="round"/>
<path d="M10.1687 12.8442L12.2958 13.8795L12.0009 11.4136L10.1687 12.8442Z" fill="#E4761B" stroke="#E4761B" stroke-width="1.07998" stroke-linecap="round" stroke-linejoin="round"/>
<path d="M12.2939 13.8793L10.1667 12.844L10.3362 14.2307L10.3173 14.8142L12.2939 13.8793Z" fill="#D7C1B3" stroke="#D7C1B3" stroke-width="1.07998" stroke-linecap="round" stroke-linejoin="round"/>
<path d="M5.70557 13.8793L7.68209 14.8142L7.66954 14.2307L7.8264 12.844L5.70557 13.8793Z" fill="#D7C1B3" stroke="#D7C1B3" stroke-width="1.07998" stroke-linecap="round" stroke-linejoin="round"/>
<path d="M7.71477 10.4976L5.94531 9.97676L7.19397 9.40576L7.71477 10.4976Z" fill="#233447" stroke="#233447" stroke-width="1.07998" stroke-linecap="round" stroke-linejoin="round"/>
<path d="M10.2812 10.4977L10.802 9.40588L12.057 9.97688L10.2812 10.4977Z" fill="#233447" stroke="#233447" stroke-width="1.07998" stroke-linecap="round" stroke-linejoin="round"/>
<path d="M5.70844 13.8797L6.00962 11.3322L4.04565 11.3886L5.70844 13.8797Z" fill="#CD6116" stroke="#CD6116" stroke-width="1.07998" stroke-linecap="round" stroke-linejoin="round"/>
<path d="M11.9956 11.3322L12.2968 13.8797L13.9596 11.3886L11.9956 11.3322Z" fill="#CD6116" stroke="#CD6116" stroke-width="1.07998" stroke-linecap="round" stroke-linejoin="round"/>
<path d="M13.4893 8.52734L9.96289 8.68421L10.2892 10.4976L10.81 9.4058L12.0649 9.97679L13.4893 8.52734Z" fill="#CD6116" stroke="#CD6116" stroke-width="1.07998" stroke-linecap="round" stroke-linejoin="round"/>
<path d="M5.9482 9.97679L7.20313 9.4058L7.71766 10.4976L8.05021 8.68421L4.51758 8.52734L5.9482 9.97679Z" fill="#CD6116" stroke="#CD6116" stroke-width="1.07998" stroke-linecap="round" stroke-linejoin="round"/>
<path d="M4.51562 8.52722L5.99645 11.4136L5.94625 9.97667L4.51562 8.52722Z" fill="#E4751F" stroke="#E4751F" stroke-width="1.07998" stroke-linecap="round" stroke-linejoin="round"/>
<path d="M12.0642 9.97667L12.0015 11.4136L13.4886 8.52722L12.0642 9.97667Z" fill="#E4751F" stroke="#E4751F" stroke-width="1.07998" stroke-linecap="round" stroke-linejoin="round"/>
<path d="M8.04813 8.68384L7.71558 10.4972L8.1297 12.6369L8.22382 9.81955L8.04813 8.68384Z" fill="#E4751F" stroke="#E4751F" stroke-width="1.07998" stroke-linecap="round" stroke-linejoin="round"/>
<path d="M9.96165 8.68384L9.79224 9.81328L9.86753 12.6369L10.2879 10.4972L9.96165 8.68384Z" fill="#E4751F" stroke="#E4751F" stroke-width="1.07998" stroke-linecap="round" stroke-linejoin="round"/>
<path d="M10.2861 10.4974L9.86572 12.637L10.1669 12.8441L11.9991 11.4135L12.0619 9.97656L10.2861 10.4974Z" fill="#F6851B" stroke="#F6851B" stroke-width="1.07998" stroke-linecap="round" stroke-linejoin="round"/>
<path d="M5.94531 9.97644L5.99551 11.4133L7.82771 12.844L8.12889 12.6369L7.71477 10.4972L5.94531 9.97644Z" fill="#F6851B" stroke="#F6851B" stroke-width="1.07998" stroke-linecap="round" stroke-linejoin="round"/>
<path d="M10.3182 14.8144L10.337 14.2309L10.1801 14.0929H7.81459L7.67027 14.2309L7.68282 14.8144L5.7063 13.8795L6.39651 14.4442L7.79576 15.4168H10.199L11.6045 14.4442L12.2947 13.8795L10.3182 14.8144Z" fill="#C0AD9E" stroke="#C0AD9E" stroke-width="1.07998" stroke-linecap="round" stroke-linejoin="round"/>
<path d="M10.1677 12.844L9.86654 12.637H8.12846L7.82728 12.844L7.67041 14.2307L7.81473 14.0927H10.1803L10.3371 14.2307L10.1677 12.844Z" fill="#161616" stroke="#161616" stroke-width="1.07998" stroke-linecap="round" stroke-linejoin="round"/>
<path d="M16.4668 5.52166L17.0001 2.96159L16.2032 0.583496L10.167 5.06361L12.4886 7.02758L15.7703 7.9876L16.4981 7.14052L16.1844 6.91463L16.6864 6.45658L16.2973 6.1554L16.7993 5.77264L16.4668 5.52166Z" fill="#763D16" stroke="#763D16" stroke-width="1.07998" stroke-linecap="round" stroke-linejoin="round"/>
<path d="M1 2.96135L1.53335 5.52141L1.19451 5.7724L1.69649 6.15515L1.31373 6.45634L1.81571 6.91439L1.50197 7.14028L2.22356 7.98736L5.50521 7.02733L7.82684 5.06336L1.79061 0.583252L1 2.96135Z" fill="#763D16" stroke="#763D16" stroke-width="1.07998" stroke-linecap="round" stroke-linejoin="round"/>
<path d="M15.7711 7.98761L12.4894 7.02759L13.4871 8.52723L12 11.4136L13.9577 11.3885H16.8754L15.7711 7.98761Z" fill="#F6851B" stroke="#F6851B" stroke-width="1.07998" stroke-linecap="round" stroke-linejoin="round"/>
<path d="M5.50625 7.02771L2.2246 7.98773L1.13281 11.3886H4.04426L5.99568 11.4137L4.51486 8.52736L5.50625 7.02771Z" fill="#F6851B" stroke="#F6851B" stroke-width="1.07998" stroke-linecap="round" stroke-linejoin="round"/>
<path d="M9.96204 8.68399L10.1691 5.06351L11.1228 2.48462H6.88745L7.82865 5.06351L8.04826 8.68399L8.12356 9.82598L8.12983 12.637H9.86792L9.88047 9.82598L9.96204 8.68399Z" fill="#F6851B" stroke="#F6851B" stroke-width="1.07998" stroke-linecap="round" stroke-linejoin="round"/>
</svg>
