<svg width="57" height="57" viewBox="0 0 57 57" fill="none" xmlns="http://www.w3.org/2000/svg">
<mask id="path-1-outside-1_1_4429" maskUnits="userSpaceOnUse" x="0.757812" y="0.699219" width="56" height="56" fill="black">
<rect fill="white" x="0.757812" y="0.699219" width="56" height="56"/>
<path fill-rule="evenodd" clip-rule="evenodd" d="M17.8112 11.3675C17.0093 9.7342 15.3482 8.69922 13.5287 8.69922H10.0524C9.33742 8.69922 8.75781 9.27882 8.75781 9.99381C8.75781 10.8237 9.61635 11.438 10.3068 11.8984C10.3504 11.9274 10.3931 11.9584 10.435 11.9913L20.7238 20.0791C21.5922 20.7618 21.7428 22.0191 21.0602 22.8875C20.3776 23.7559 19.1202 23.9065 18.2518 23.2239L12.5214 18.7193C10.9953 17.5196 8.75781 18.6068 8.75781 20.548C8.75781 21.6388 9.51583 22.5831 10.5808 22.819L17.7846 24.4146C18.8631 24.6535 19.5437 25.7213 19.3048 26.7998C19.0659 27.8782 17.998 28.5588 16.9196 28.3199L11.1924 27.0514C9.94266 26.7746 8.75781 27.7257 8.75781 29.0057C8.75781 30.2958 9.96026 31.249 11.2163 30.9546L17.0145 29.5955C18.0899 29.3434 19.1661 30.0109 19.4181 31.0863C19.6702 32.1617 19.0027 33.2379 17.9273 33.49L10.5956 35.2085C9.51901 35.4608 8.75781 36.4211 8.75781 37.5268C8.75781 39.5276 11.0757 40.6363 12.6334 39.3807L18.5658 34.5986C19.4257 33.9053 20.6848 34.0405 21.378 34.9005C22.0712 35.7604 21.9361 37.0195 21.0761 37.7127L10.8872 45.9261C10.6981 46.0785 10.4896 46.1909 10.2722 46.2644C9.59052 46.4945 8.75781 47.005 8.75781 47.7245C8.75781 48.2628 9.19422 48.6992 9.73257 48.6992H13.9615C15.9691 48.6992 17.7977 47.5443 18.6603 45.7314L22.1323 38.4348C22.6069 37.4374 23.8002 37.0136 24.7976 37.4882C25.795 37.9628 26.2188 39.1561 25.7442 40.1535L23.0885 45.7348C22.4338 47.1107 23.4371 48.6992 24.9608 48.6992C26.1093 48.6992 27.039 47.7657 27.0343 46.6172L27.0087 40.3467C27.0042 39.2421 27.8959 38.343 29.0005 38.3385C30.1051 38.334 31.0041 39.2258 31.0087 40.3303L31.0343 46.6112C31.039 47.7658 31.9763 48.6992 33.1309 48.6992C34.6791 48.6992 35.6932 47.0789 35.0166 45.6864L32.2324 39.9563C31.7497 38.9628 32.1637 37.7661 33.1572 37.2833C34.1507 36.8006 35.3474 37.2147 35.8302 38.2082L39.6104 45.9881C40.4162 47.6465 42.0982 48.6992 43.942 48.6992H47.5065C48.1976 48.6992 48.7578 48.139 48.7578 47.4479C48.7578 46.633 47.9058 46.0335 47.2139 45.603C47.1496 45.563 47.0868 45.5189 47.026 45.4707L36.7703 37.3409C35.9047 36.6547 35.7592 35.3967 36.4454 34.5312C37.1316 33.6656 38.3895 33.5201 39.2551 34.2063L44.9805 38.7448C46.5077 39.9555 48.7578 38.8678 48.7578 36.919C48.7578 35.8299 48.0034 34.8861 46.941 34.6462L39.7266 33.0173C38.6491 32.774 37.9729 31.7034 38.2162 30.6259C38.4594 29.5485 39.5301 28.8722 40.6075 29.1155L46.3186 30.405C47.5687 30.6873 48.7578 29.7367 48.7578 28.4551C48.7578 27.1702 47.5629 26.219 46.3106 26.5071L40.5162 27.8403C39.4397 28.088 38.3663 27.4161 38.1187 26.3397C37.871 25.2633 38.5428 24.1898 39.6193 23.9422L46.918 22.2628C47.9948 22.0151 48.7578 21.0566 48.7578 19.9516C48.7578 17.9635 46.4584 16.8578 44.9054 18.0992L38.9845 22.8323C38.1217 23.522 36.8632 23.3817 36.1735 22.5189C35.4838 21.6562 35.6241 20.3976 36.4869 19.7079L46.7093 11.5363C46.8759 11.403 47.0574 11.3008 47.2466 11.2287C47.9304 10.9684 48.7578 10.4467 48.7578 9.71504C48.7578 9.15402 48.303 8.69922 47.742 8.69922H43.6134C41.6362 8.69922 39.834 9.83238 38.9771 11.6143L35.4339 18.9828C34.9553 19.9782 33.7602 20.3972 32.7648 19.9185C31.7693 19.4398 31.3504 18.2448 31.8291 17.2493L34.5106 11.6728C35.1728 10.2955 34.1692 8.69922 32.6409 8.69922C31.4952 8.69922 30.5664 9.62802 30.5664 10.7738V17.0519C30.5664 18.1564 29.671 19.0519 28.5664 19.0519C27.4618 19.0519 26.5664 18.1564 26.5664 17.0519V10.8525C26.5664 9.66326 25.6024 8.69922 24.4132 8.69922C22.8193 8.69922 21.7779 10.3707 22.4803 11.8014L25.2514 17.4456C25.7382 18.4371 25.329 19.6355 24.3375 20.1223C23.346 20.6091 22.1476 20.1999 21.6608 19.2084L17.8112 11.3675Z"/>
</mask>
<path fill-rule="evenodd" clip-rule="evenodd" d="M17.8112 11.3675C17.0093 9.7342 15.3482 8.69922 13.5287 8.69922H10.0524C9.33742 8.69922 8.75781 9.27882 8.75781 9.99381C8.75781 10.8237 9.61635 11.438 10.3068 11.8984C10.3504 11.9274 10.3931 11.9584 10.435 11.9913L20.7238 20.0791C21.5922 20.7618 21.7428 22.0191 21.0602 22.8875C20.3776 23.7559 19.1202 23.9065 18.2518 23.2239L12.5214 18.7193C10.9953 17.5196 8.75781 18.6068 8.75781 20.548C8.75781 21.6388 9.51583 22.5831 10.5808 22.819L17.7846 24.4146C18.8631 24.6535 19.5437 25.7213 19.3048 26.7998C19.0659 27.8782 17.998 28.5588 16.9196 28.3199L11.1924 27.0514C9.94266 26.7746 8.75781 27.7257 8.75781 29.0057C8.75781 30.2958 9.96026 31.249 11.2163 30.9546L17.0145 29.5955C18.0899 29.3434 19.1661 30.0109 19.4181 31.0863C19.6702 32.1617 19.0027 33.2379 17.9273 33.49L10.5956 35.2085C9.51901 35.4608 8.75781 36.4211 8.75781 37.5268C8.75781 39.5276 11.0757 40.6363 12.6334 39.3807L18.5658 34.5986C19.4257 33.9053 20.6848 34.0405 21.378 34.9005C22.0712 35.7604 21.9361 37.0195 21.0761 37.7127L10.8872 45.9261C10.6981 46.0785 10.4896 46.1909 10.2722 46.2644C9.59052 46.4945 8.75781 47.005 8.75781 47.7245C8.75781 48.2628 9.19422 48.6992 9.73257 48.6992H13.9615C15.9691 48.6992 17.7977 47.5443 18.6603 45.7314L22.1323 38.4348C22.6069 37.4374 23.8002 37.0136 24.7976 37.4882C25.795 37.9628 26.2188 39.1561 25.7442 40.1535L23.0885 45.7348C22.4338 47.1107 23.4371 48.6992 24.9608 48.6992C26.1093 48.6992 27.039 47.7657 27.0343 46.6172L27.0087 40.3467C27.0042 39.2421 27.8959 38.343 29.0005 38.3385C30.1051 38.334 31.0041 39.2258 31.0087 40.3303L31.0343 46.6112C31.039 47.7658 31.9763 48.6992 33.1309 48.6992C34.6791 48.6992 35.6932 47.0789 35.0166 45.6864L32.2324 39.9563C31.7497 38.9628 32.1637 37.7661 33.1572 37.2833C34.1507 36.8006 35.3474 37.2147 35.8302 38.2082L39.6104 45.9881C40.4162 47.6465 42.0982 48.6992 43.942 48.6992H47.5065C48.1976 48.6992 48.7578 48.139 48.7578 47.4479C48.7578 46.633 47.9058 46.0335 47.2139 45.603C47.1496 45.563 47.0868 45.5189 47.026 45.4707L36.7703 37.3409C35.9047 36.6547 35.7592 35.3967 36.4454 34.5312C37.1316 33.6656 38.3895 33.5201 39.2551 34.2063L44.9805 38.7448C46.5077 39.9555 48.7578 38.8678 48.7578 36.919C48.7578 35.8299 48.0034 34.8861 46.941 34.6462L39.7266 33.0173C38.6491 32.774 37.9729 31.7034 38.2162 30.6259C38.4594 29.5485 39.5301 28.8722 40.6075 29.1155L46.3186 30.405C47.5687 30.6873 48.7578 29.7367 48.7578 28.4551C48.7578 27.1702 47.5629 26.219 46.3106 26.5071L40.5162 27.8403C39.4397 28.088 38.3663 27.4161 38.1187 26.3397C37.871 25.2633 38.5428 24.1898 39.6193 23.9422L46.918 22.2628C47.9948 22.0151 48.7578 21.0566 48.7578 19.9516C48.7578 17.9635 46.4584 16.8578 44.9054 18.0992L38.9845 22.8323C38.1217 23.522 36.8632 23.3817 36.1735 22.5189C35.4838 21.6562 35.6241 20.3976 36.4869 19.7079L46.7093 11.5363C46.8759 11.403 47.0574 11.3008 47.2466 11.2287C47.9304 10.9684 48.7578 10.4467 48.7578 9.71504C48.7578 9.15402 48.303 8.69922 47.742 8.69922H43.6134C41.6362 8.69922 39.834 9.83238 38.9771 11.6143L35.4339 18.9828C34.9553 19.9782 33.7602 20.3972 32.7648 19.9185C31.7693 19.4398 31.3504 18.2448 31.8291 17.2493L34.5106 11.6728C35.1728 10.2955 34.1692 8.69922 32.6409 8.69922C31.4952 8.69922 30.5664 9.62802 30.5664 10.7738V17.0519C30.5664 18.1564 29.671 19.0519 28.5664 19.0519C27.4618 19.0519 26.5664 18.1564 26.5664 17.0519V10.8525C26.5664 9.66326 25.6024 8.69922 24.4132 8.69922C22.8193 8.69922 21.7779 10.3707 22.4803 11.8014L25.2514 17.4456C25.7382 18.4371 25.329 19.6355 24.3375 20.1223C23.346 20.6091 22.1476 20.1999 21.6608 19.2084L17.8112 11.3675Z" fill="white"/>
<path d="M10.435 11.9913L5.49099 18.2807L10.435 11.9913ZM20.7238 20.0791L25.6678 13.7897L25.6678 13.7897L20.7238 20.0791ZM18.2518 23.2239L23.1958 16.9344L23.1958 16.9344L18.2518 23.2239ZM17.7846 24.4146L19.5147 16.6039L17.7846 24.4146ZM16.9196 28.3199L18.6497 20.5092L18.6496 20.5092L16.9196 28.3199ZM17.0145 29.5955L15.1888 21.8066L15.1888 21.8066L17.0145 29.5955ZM19.4181 31.0863L11.6292 32.912L11.6292 32.912L19.4181 31.0863ZM17.9273 33.49L16.1017 25.7011L16.1017 25.7011L17.9273 33.49ZM18.5658 34.5986L13.545 28.3702L13.545 28.3702L18.5658 34.5986ZM21.0761 37.7127L16.0554 31.4844L16.0554 31.4844L21.0761 37.7127ZM10.8872 45.9261L15.9079 52.1545L15.9079 52.1545L10.8872 45.9261ZM22.1323 38.4348L14.9084 34.9974L14.9084 34.9974L22.1323 38.4348ZM25.7442 40.1535L32.9681 43.5909L32.9681 43.5909L25.7442 40.1535ZM27.0087 40.3467L35.0086 40.314V40.314L27.0087 40.3467ZM29.0005 38.3385L29.0332 46.3384H29.0332L29.0005 38.3385ZM31.0087 40.3303L23.0087 40.363V40.363L31.0087 40.3303ZM32.2324 39.9563L25.0369 43.4526L25.0369 43.4526L32.2324 39.9563ZM33.1572 37.2833L36.6535 44.4789L36.6535 44.4789L33.1572 37.2833ZM35.8302 38.2082L28.6346 41.7044L28.6346 41.7044L35.8302 38.2082ZM47.026 45.4707L42.0564 51.7399L42.0564 51.7399L47.026 45.4707ZM36.7703 37.3409L41.7399 31.0717L41.7399 31.0717L36.7703 37.3409ZM36.4454 34.5312L30.1762 29.5615L30.1762 29.5615L36.4454 34.5312ZM39.2551 34.2063L44.2247 27.9371L44.2247 27.9371L39.2551 34.2063ZM39.7266 33.0173L41.4885 25.2137L39.7266 33.0173ZM38.2162 30.6259L30.4126 28.864V28.864L38.2162 30.6259ZM40.6075 29.1155L42.3695 21.3119H42.3695L40.6075 29.1155ZM40.5162 27.8403L38.7224 20.044L38.7224 20.044L40.5162 27.8403ZM38.1187 26.3397L30.3224 28.1335L30.3224 28.1335L38.1187 26.3397ZM39.6193 23.9422L37.8255 16.1459L37.8254 16.1459L39.6193 23.9422ZM38.9845 22.8323L43.9797 29.0812L43.9797 29.0812L38.9845 22.8323ZM36.4869 19.7079L41.4821 25.9568L41.4821 25.9568L36.4869 19.7079ZM46.7093 11.5363L51.7045 17.7851L51.7045 17.7851L46.7093 11.5363ZM35.4339 18.9828L42.6437 22.4496V22.4496L35.4339 18.9828ZM31.8291 17.2493L39.0388 20.7162V20.7162L31.8291 17.2493ZM25.2514 17.4456L18.0702 20.9712L18.0702 20.9712L25.2514 17.4456ZM24.3375 20.1223L27.8631 27.3035L27.8631 27.3035L24.3375 20.1223ZM21.6608 19.2084L14.4796 22.7341L14.4796 22.7341L21.6608 19.2084ZM46.3186 30.405L48.0806 22.6014L46.3186 30.405ZM39.6104 45.9881L32.4149 49.4844L39.6104 45.9881ZM31.0343 46.6112L39.0343 46.5785L31.0343 46.6112ZM46.3106 26.5071L48.1045 34.3034L46.3106 26.5071ZM38.9771 11.6143L46.1869 15.0811L38.9771 11.6143ZM10.5956 35.2085L12.4213 42.9974L10.5956 35.2085ZM10.5808 22.819L12.3109 15.0083L10.5808 22.819ZM47.2139 45.603L51.4399 38.8103L47.2139 45.603ZM12.6334 39.3807L7.61268 33.1523L12.6334 39.3807ZM46.941 34.6462L45.1791 42.4498L46.941 34.6462ZM17.8112 11.3675L10.63 14.8932L17.8112 11.3675ZM11.2163 30.9546L9.39064 23.1657L11.2163 30.9546ZM44.9805 38.7448L40.0108 45.014L44.9805 38.7448ZM10.2722 46.2644L7.71289 38.6848L10.2722 46.2644ZM35.0166 45.6864L27.8211 49.1827L35.0166 45.6864ZM11.1924 27.0514L9.46234 34.8621L11.1924 27.0514ZM10.0524 16.6992H13.5287V0.699219H10.0524V16.6992ZM15.379 5.70186C15.1732 5.54012 14.9617 5.3869 14.7451 5.24244L5.86851 18.5543C5.73898 18.468 5.61304 18.3767 5.49099 18.2807L15.379 5.70186ZM25.6678 13.7897L15.379 5.70186L5.49099 18.2807L15.7799 26.3686L25.6678 13.7897ZM27.3496 27.8315C30.7627 23.4895 30.0098 17.2028 25.6678 13.7897L15.7799 26.3686C13.1747 24.3207 12.7229 20.5487 14.7708 17.9435L27.3496 27.8315ZM13.3079 29.5133C17.6498 32.9264 23.9365 32.1734 27.3496 27.8315L14.7708 17.9435C16.8186 15.3383 20.5907 14.8865 23.1958 16.9344L13.3079 29.5133ZM7.57739 25.0087L13.3079 29.5133L23.1958 16.9344L17.4654 12.4298L7.57739 25.0087ZM19.5147 16.6039L12.3109 15.0083L8.8508 30.6297L16.0546 32.2253L19.5147 16.6039ZM27.1155 28.5298C28.3098 23.1377 24.9068 17.7982 19.5147 16.6039L16.0546 32.2253C12.8193 31.5087 10.7775 28.305 11.4941 25.0697L27.1155 28.5298ZM15.1895 36.1306C20.5817 37.325 25.9211 33.922 27.1155 28.5298L11.4941 25.0697C12.2107 21.8344 15.4144 19.7926 18.6497 20.5092L15.1895 36.1306ZM9.46234 34.8621L15.1896 36.1306L18.6496 20.5092L12.9224 19.2407L9.46234 34.8621ZM15.1888 21.8066L9.39064 23.1657L13.042 38.7435L18.8402 37.3844L15.1888 21.8066ZM27.207 29.2607C25.9467 23.8835 20.5659 20.5463 15.1888 21.8066L18.8402 37.3844C15.6139 38.1406 12.3854 36.1383 11.6292 32.912L27.207 29.2607ZM19.753 41.2789C25.1301 40.0185 28.4674 34.6378 27.207 29.2607L11.6292 32.912C10.873 29.6857 12.8754 26.4573 16.1017 25.7011L19.753 41.2789ZM12.4213 42.9974L19.753 41.2789L16.1017 25.7011L8.76992 27.4196L12.4213 42.9974ZM13.545 28.3702L7.61268 33.1523L17.6541 45.609L23.5865 40.8269L13.545 28.3702ZM27.6064 29.8798C24.1403 25.58 17.8448 24.9041 13.545 28.3702L23.5865 40.8269C21.0066 42.9066 17.2293 42.5011 15.1497 39.9212L27.6064 29.8798ZM26.0968 43.9411C30.3966 40.475 31.0725 34.1795 27.6064 29.8798L15.1497 39.9212C13.07 37.3413 13.4755 33.564 16.0554 31.4844L26.0968 43.9411ZM15.9079 52.1545L26.0968 43.9411L16.0554 31.4844L5.86646 39.6977L15.9079 52.1545ZM12.8315 53.8439C13.9294 53.4732 14.9736 52.9076 15.9079 52.1545L5.86647 39.6977C6.42254 39.2495 7.04986 38.9086 7.71289 38.6848L12.8315 53.8439ZM13.9615 40.6992H9.73257V56.6992H13.9615V40.6992ZM14.9084 34.9974L11.4364 42.294L25.8842 49.1688L29.3562 41.8722L14.9084 34.9974ZM28.235 30.2643C23.2479 27.8913 17.2814 30.0104 14.9084 34.9974L29.3562 41.8722C27.9324 44.8644 24.3525 46.1359 21.3602 44.7121L28.235 30.2643ZM32.9681 43.5909C35.3411 38.6038 33.222 32.6373 28.235 30.2643L21.3602 44.7121C18.368 43.2883 17.0966 39.7084 18.5204 36.7161L32.9681 43.5909ZM30.3124 49.1721L32.9681 43.5909L18.5204 36.7161L15.8646 42.2974L30.3124 49.1721ZM19.0088 40.3794L19.0344 46.6499L35.0343 46.5845L35.0086 40.314L19.0088 40.3794ZM28.9678 30.3386C23.445 30.3611 18.9862 34.8566 19.0088 40.3794L35.0086 40.314C35.0222 43.6277 32.3469 46.3249 29.0332 46.3384L28.9678 30.3386ZM39.0086 40.2976C38.986 34.7748 34.4906 30.316 28.9678 30.3386L29.0332 46.3384C25.7195 46.352 23.0223 43.6767 23.0087 40.363L39.0086 40.2976ZM39.0343 46.5785L39.0086 40.2976L23.0087 40.363L23.0344 46.6439L39.0343 46.5785ZM25.0369 43.4526L27.8211 49.1827L42.2122 42.1901L39.428 36.46L25.0369 43.4526ZM29.6609 30.0878C24.6934 32.5015 22.6232 38.4851 25.0369 43.4526L39.428 36.46C40.8762 39.4405 39.634 43.0307 36.6535 44.4789L29.6609 30.0878ZM43.0257 34.7119C40.6121 29.7444 34.6284 27.6741 29.6609 30.0878L36.6535 44.4789C33.673 45.9271 30.0828 44.6849 28.6346 41.7044L43.0257 34.7119ZM46.806 42.4918L43.0257 34.7119L28.6346 41.7044L32.4149 49.4844L46.806 42.4918ZM47.5065 40.6992H43.942V56.6992H47.5065V40.6992ZM42.0564 51.7399C42.3554 51.9769 42.6665 52.1957 42.9879 52.3957L51.4399 38.8103C51.6327 38.9302 51.8182 39.0608 51.9956 39.2015L42.0564 51.7399ZM31.8006 43.61L42.0564 51.7399L51.9957 39.2015L41.7399 31.0717L31.8006 43.61ZM30.1762 29.5615C26.7454 33.8895 27.4727 40.1792 31.8006 43.6101L41.7399 31.0717C44.3367 33.1302 44.7731 36.904 42.7146 39.5008L30.1762 29.5615ZM44.2247 27.9371C39.8968 24.5063 33.607 25.2335 30.1762 29.5615L42.7146 39.5008C40.6561 42.0976 36.8822 42.5339 34.2855 40.4755L44.2247 27.9371ZM49.9501 32.4756L44.2247 27.9371L34.2855 40.4755L40.0108 45.014L49.9501 32.4756ZM37.9646 40.8208L45.1791 42.4498L48.703 26.8427L41.4885 25.2137L37.9646 40.8208ZM30.4126 28.864C29.1962 34.2512 32.5774 39.6045 37.9646 40.8208L41.4885 25.2137C44.7208 25.9435 46.7495 29.1555 46.0197 32.3879L30.4126 28.864ZM42.3695 21.3119C36.9823 20.0956 31.629 23.4767 30.4126 28.864L46.0197 32.3879C45.2899 35.6202 42.0779 37.6489 38.8456 36.9191L42.3695 21.3119ZM48.0806 22.6014L42.3695 21.3119L38.8456 36.9191L44.5567 38.2086L48.0806 22.6014ZM42.31 35.6366L48.1045 34.3034L44.5168 18.7108L38.7224 20.044L42.31 35.6366ZM30.3224 28.1335C31.5607 33.5157 36.9278 36.875 42.31 35.6366L38.7224 20.044C41.9517 19.301 45.1719 21.3165 45.915 24.5459L30.3224 28.1335ZM37.8254 16.1459C32.4432 17.3843 29.084 22.7513 30.3224 28.1335L45.915 24.5459C46.658 27.7752 44.6424 30.9954 41.4131 31.7385L37.8254 16.1459ZM45.1242 14.4665L37.8255 16.1459L41.4131 31.7385L48.7118 30.0591L45.1242 14.4665ZM43.9797 29.0812L49.9007 24.348L39.9102 11.8504L33.9893 16.5835L43.9797 29.0812ZM29.9246 27.5142C33.3731 31.8281 39.6658 32.5296 43.9797 29.0812L33.9893 16.5835C36.5776 14.5144 40.3532 14.9354 42.4223 17.5237L29.9246 27.5142ZM31.4916 13.4591C27.1777 16.9076 26.4762 23.2002 29.9246 27.5142L42.4223 17.5237C44.4914 20.1121 44.0704 23.8877 41.4821 25.9568L31.4916 13.4591ZM41.7141 5.28746L31.4916 13.4591L41.4821 25.9568L51.7045 17.7851L41.7141 5.28746ZM44.3999 3.75236C43.4445 4.11616 42.5366 4.62992 41.7141 5.28746L51.7045 17.7851C51.2153 18.1762 50.6703 18.4854 50.0934 18.7051L44.3999 3.75236ZM43.6134 16.6992H47.742V0.699219H43.6134V16.6992ZM42.6437 22.4496L46.1869 15.0811L31.7673 8.14741L28.2242 15.5159L42.6437 22.4496ZM29.2979 27.1283C34.2752 29.5216 40.2503 27.4269 42.6437 22.4496L28.2242 15.5159C29.6602 12.5295 33.2453 11.2727 36.2316 12.7087L29.2979 27.1283ZM24.6193 13.7825C22.2259 18.7598 24.3206 24.7349 29.2979 27.1283L36.2316 12.7087C39.218 14.1447 40.4748 17.7298 39.0388 20.7162L24.6193 13.7825ZM27.3008 8.20592L24.6193 13.7825L39.0388 20.7162L41.7203 15.1396L27.3008 8.20592ZM38.5664 17.0519V10.7738H22.5664V17.0519H38.5664ZM28.5664 27.0519C34.0893 27.0519 38.5664 22.5747 38.5664 17.0519H22.5664C22.5664 13.7382 25.2527 11.0519 28.5664 11.0519V27.0519ZM18.5664 17.0519C18.5664 22.5747 23.0436 27.0519 28.5664 27.0519V11.0519C31.8801 11.0519 34.5664 13.7382 34.5664 17.0519H18.5664ZM18.5664 10.8525V17.0519H34.5664V10.8525H18.5664ZM15.2991 15.3271L18.0702 20.9712L32.4326 13.9199L29.6615 8.27574L15.2991 15.3271ZM18.0702 20.9712C16.6098 17.9967 17.8373 14.4015 20.8118 12.9411L27.8631 27.3035C32.8207 24.8695 34.8665 18.8775 32.4326 13.9199L18.0702 20.9712ZM20.8118 12.9411C23.7864 11.4807 27.3816 12.7082 28.842 15.6827L14.4796 22.7341C16.9135 27.6916 22.9056 29.7374 27.8631 27.3035L20.8118 12.9411ZM28.842 15.6827L24.9924 7.84185L10.63 14.8932L14.4796 22.7341L28.842 15.6827ZM24.4132 0.699219C16.8976 0.699219 11.9869 8.58072 15.2991 15.3271L29.6615 8.27574C31.5688 12.1606 28.741 16.6992 24.4132 16.6992V0.699219ZM34.5664 10.8525C34.5664 5.24497 30.0206 0.699219 24.4132 0.699219V16.6992C21.1841 16.6992 18.5664 14.0815 18.5664 10.8525H34.5664ZM32.6409 0.699219C27.0769 0.699219 22.5664 5.20975 22.5664 10.7738H38.5664C38.5664 14.0463 35.9135 16.6992 32.6409 16.6992V0.699219ZM41.7203 15.1396C44.9365 8.45128 40.0624 0.699219 32.6409 0.699219V16.6992C28.2759 16.6992 25.4092 12.1398 27.3008 8.20592L41.7203 15.1396ZM56.7578 9.71504C56.7578 4.73574 52.7213 0.699219 47.742 0.699219V16.6992C43.8847 16.6992 40.7578 13.5723 40.7578 9.71504H56.7578ZM50.0934 18.7051C50.9747 18.3695 52.2766 17.7573 53.5107 16.6832C54.6978 15.65 56.7578 13.3246 56.7578 9.71504H40.7578C40.7578 6.83717 42.4041 5.13841 43.0066 4.61406C43.6561 4.0488 44.2024 3.82755 44.3999 3.75236L50.0934 18.7051ZM56.7578 19.9516C56.7578 11.2568 46.7018 6.42133 39.9102 11.8504L49.9007 24.348C46.215 27.2943 40.7578 24.6701 40.7578 19.9516H56.7578ZM48.7118 30.0591C53.4209 28.9756 56.7578 24.7837 56.7578 19.9516H40.7578C40.7578 17.3294 42.5687 15.0545 45.1242 14.4665L48.7118 30.0591ZM44.5567 38.2086C50.81 39.6205 56.7578 34.8659 56.7578 28.4551H40.7578C40.7578 24.6076 44.3275 21.754 48.0806 22.6014L44.5567 38.2086ZM32.4149 49.4844C34.5593 53.8977 39.0353 56.6992 43.942 56.6992V40.6992C45.1611 40.6992 46.2732 41.3953 46.806 42.4918L32.4149 49.4844ZM23.0344 46.6439C23.0571 52.2039 27.5708 56.6992 33.1309 56.6992V40.6992C36.3818 40.6992 39.021 43.3276 39.0343 46.5785L23.0344 46.6439ZM56.7578 28.4551C56.7578 22.0276 50.7807 17.2696 44.5168 18.7108L48.1045 34.3034C44.3451 35.1684 40.7578 32.3127 40.7578 28.4551H56.7578ZM15.8646 42.2974C12.6838 48.982 17.558 56.6992 24.9608 56.6992V40.6992C29.3161 40.6992 32.1837 45.2394 30.3124 49.1721L15.8646 42.2974ZM47.5065 56.6992C52.6158 56.6992 56.7578 52.5572 56.7578 47.4479H40.7578C40.7578 43.7207 43.7793 40.6992 47.5065 40.6992V56.6992ZM43.6134 0.699219C38.5615 0.699219 33.9566 3.59453 31.7673 8.14741L46.1869 15.0811C45.7113 16.0702 44.7109 16.6992 43.6134 16.6992V0.699219ZM8.76992 27.4196C4.07642 28.5197 0.757812 32.7061 0.757812 37.5268H16.7578C16.7578 40.136 14.9616 42.4019 12.4213 42.9974L8.76992 27.4196ZM0.757812 20.548C0.757812 25.3904 4.12289 29.5825 8.8508 30.6297L12.3109 15.0083C14.9088 15.5837 16.7578 17.8871 16.7578 20.548H0.757812ZM56.7578 47.4479C56.7578 44.0738 54.9717 41.8151 53.9585 40.7814C52.9382 39.7404 51.8413 39.06 51.4399 38.8103L42.9879 52.3957C43.2785 52.5765 42.9535 52.4111 42.5321 51.9812C42.1179 51.5586 40.7578 50.007 40.7578 47.4479H56.7578ZM0.757812 37.5268C0.757812 46.2495 10.8632 51.0832 17.6541 45.609L7.61268 33.1523C11.2883 30.1894 16.7578 32.8057 16.7578 37.5268H0.757812ZM24.9608 56.6992C30.5403 56.6992 35.0571 52.164 35.0343 46.5845L19.0344 46.6499C19.021 43.3674 21.6783 40.6992 24.9608 40.6992V56.6992ZM17.4654 12.4298C10.6905 7.10424 0.757812 11.9305 0.757812 20.548H16.7578C16.7578 25.2831 11.3 27.935 7.57739 25.0087L17.4654 12.4298ZM10.0524 0.699219C4.91914 0.699219 0.757812 4.86054 0.757812 9.99381H16.7578C16.7578 13.6971 13.7557 16.6992 10.0524 16.6992V0.699219ZM56.7578 36.919C56.7578 32.0905 53.4129 27.9061 48.703 26.8427L45.1791 42.4498C42.5938 41.8661 40.7578 39.5693 40.7578 36.919H56.7578ZM13.5287 16.6992C12.2971 16.6992 11.1728 15.9987 10.63 14.8932L24.9924 7.84185C22.8459 3.4697 18.3993 0.699219 13.5287 0.699219V16.6992ZM0.757812 47.7245C0.757812 52.6811 4.77595 56.6992 9.73257 56.6992V40.6992C13.6125 40.6992 16.7578 43.8445 16.7578 47.7245H0.757812ZM0.757812 29.0057C0.757812 35.4518 6.76601 40.2145 13.042 38.7435L9.39064 23.1657C13.1545 22.2834 16.7578 25.1398 16.7578 29.0057H0.757812ZM13.9615 56.6992C19.0556 56.6992 23.6954 53.7687 25.8842 49.1688L11.4364 42.294C11.9 41.3199 12.8826 40.6992 13.9615 40.6992V56.6992ZM0.757812 9.99381C0.757812 13.3365 2.5082 15.5849 3.49014 16.6122C4.47073 17.6382 5.54338 18.3375 5.86851 18.5543L14.7451 5.24244C14.3798 4.99884 14.6779 5.16085 15.0566 5.55707C15.4367 5.95472 16.7578 7.48101 16.7578 9.99381H0.757812ZM40.0108 45.014C46.7818 50.3814 56.7578 45.5593 56.7578 36.919H40.7578C40.7578 32.1764 46.2336 29.5295 49.9501 32.4756L40.0108 45.014ZM7.71289 38.6848C6.7354 39.0148 5.38688 39.6164 4.11531 40.684C2.90343 41.7015 0.757812 44.042 0.757812 47.7245H16.7578C16.7578 50.6874 15.0285 52.413 14.4034 52.9378C13.7186 53.5127 13.1273 53.744 12.8315 53.8439L7.71289 38.6848ZM33.1309 56.6992C40.5865 56.6992 45.4706 48.896 42.2122 42.1901L27.8211 49.1827C25.9159 45.2617 28.7716 40.6992 33.1309 40.6992V56.6992ZM12.9224 19.2407C6.67805 17.8576 0.757812 22.61 0.757812 29.0057H16.7578C16.7578 32.8414 13.2073 35.6916 9.46234 34.8621L12.9224 19.2407Z" fill="#212833" mask="url(#path-1-outside-1_1_4429)"/>
</svg>
