<svg width="21" height="20" viewBox="0 0 21 20" fill="none" xmlns="http://www.w3.org/2000/svg">
<path d="M15.6768 5.87493C15.4768 5.8416 15.2685 5.83328 15.0518 5.83328H6.71846C6.48512 5.83328 6.26012 5.84994 6.04346 5.88327C6.16012 5.64994 6.32679 5.4333 6.52679 5.2333L9.23512 2.51663C10.3768 1.38329 12.2268 1.38329 13.3685 2.51663L14.8268 3.99159C15.3601 4.51659 15.6435 5.18327 15.6768 5.87493Z" stroke="white" stroke-width="1.5" stroke-linecap="round" stroke-linejoin="round"/>
<path d="M8.38395 15.8333C8.38395 16.4583 8.20895 17.05 7.90062 17.55C7.32562 18.5167 6.26729 19.1667 5.05062 19.1667C3.83395 19.1667 2.77562 18.5167 2.20062 17.55C1.89229 17.05 1.71729 16.4583 1.71729 15.8333C1.71729 13.9917 3.20895 12.5 5.05062 12.5C6.89229 12.5 8.38395 13.9917 8.38395 15.8333Z" stroke="white" stroke-miterlimit="10" stroke-linecap="round" stroke-linejoin="round"/>
<path d="M6.29364 15.8163H3.8103" stroke="white" stroke-miterlimit="10" stroke-linecap="round" stroke-linejoin="round"/>
<path d="M5.05054 14.5996V17.0913" stroke="white" stroke-miterlimit="10" stroke-linecap="round" stroke-linejoin="round"/>
<path d="M19.2174 10V14.1667C19.2174 16.6667 17.5508 18.3334 15.0508 18.3334H7.24245C7.50078 18.1167 7.72578 17.85 7.90078 17.55C8.20911 17.05 8.38411 16.4584 8.38411 15.8334C8.38411 13.9917 6.89245 12.5 5.05078 12.5C4.05078 12.5 3.15911 12.9417 2.55078 13.6334V10C2.55078 7.73337 3.91745 6.15004 6.04245 5.88337C6.25911 5.85004 6.48411 5.83337 6.71745 5.83337H15.0508C15.2674 5.83337 15.4758 5.8417 15.6758 5.87503C17.8258 6.12503 19.2174 7.71671 19.2174 10Z" stroke="white" stroke-linecap="round" stroke-linejoin="round"/>
<path d="M19.2174 10.4166H16.7174C15.8008 10.4166 15.0508 11.1666 15.0508 12.0833C15.0508 13 15.8008 13.75 16.7174 13.75H19.2174" stroke="white" stroke-linecap="round" stroke-linejoin="round"/>
</svg>
