<svg width="28" height="25" viewBox="0 0 28 25" fill="none" xmlns="http://www.w3.org/2000/svg">
<g clip-path="url(#clip0_1_2642)">
<path d="M5.07127 9.70959C4.31267 10.4378 2.50764 11.3147 1.97565 12.7477C1.44186 14.1831 3.23478 15.3251 3.23478 15.3251C3.23478 15.3251 2.88173 16.6253 3.31119 18.4008C3.80504 20.4432 5.34525 22.7825 6.95707 23.0883C8.4145 23.3666 11.9679 23.078 11.9679 23.078C11.9679 23.078 15.0947 22.8651 17.8302 21.7984C19.8372 21.0167 23.0303 18.8857 23.8346 17.9963C24.6388 17.1069 25.9181 15.5708 26.1856 14.1276C26.3587 13.1832 25.9465 11.9016 25.3922 11.2357C25.0592 10.8362 24.4554 10.2725 23.9981 10.0789C24.3621 9.78056 24.8731 9.13312 25.1015 8.66679C25.2188 8.42576 25.637 7.24388 25.3934 6.47781C25.0106 5.27068 23.4279 4.0848 22.1226 3.57126C21.5528 3.34653 20.6152 3.2383 20.6152 3.2383C20.6152 3.2383 19.6146 1.90427 18.1881 1.35865C17.0951 0.938837 14.9124 0.76904 13.0367 3.54768C13.0367 3.54768 10.8127 2.01757 8.57719 3.23378C7.67561 3.72511 6.87804 4.64752 6.03411 6.24872C5.18781 7.84813 5.20017 8.98335 5.05282 9.71425" fill="white"/>
<path d="M5.6793 20.728C6.74957 21.7979 6.66295 22.5692 10.5598 22.0953C14.4547 21.6216 16.1265 21.425 17.041 20.9658C18.8265 20.0704 22.8148 18.0906 23.1928 17.3555C23.5725 16.618 24.5635 15.8365 25.1377 14.2173C25.5709 12.9909 24.8419 12.0118 24.1795 11.5157C23.5172 11.0195 22.7548 10.3674 22.5476 10.1414C22.5476 10.1414 23.126 9.93652 23.3913 9.33783C23.6563 8.73705 23.2602 8.84896 23.7946 8.52495C24.6875 7.98604 24.3889 7.65178 24.3494 7.16514C24.3098 6.67849 24.0045 5.60278 23.4703 5.40497C22.9339 5.20744 23.3025 5.12691 22.4619 4.79954C21.6193 4.47247 21.8544 4.14732 20.9011 4.26396C19.9458 4.3809 20.4028 4.26483 20.4028 4.26483C20.4028 4.26483 20.4759 4.51777 19.7339 3.76743C18.9922 3.01916 18.0769 2.22698 17.0519 2.23898C16.027 2.25097 15.6672 2.16485 14.7694 2.92928C13.8695 3.694 13.2434 4.79851 13.2434 4.79851C13.2434 4.79851 12.0052 3.84935 10.4489 3.85403C8.89239 3.85663 7.95472 5.30108 7.40442 6.15544C6.85232 7.01217 6.27324 8.22686 6.16193 9.31126C6.05062 10.3957 6.11134 10.6206 6.11134 10.6206L5.87204 10.4542L5.10913 10.9667C5.10913 10.9667 3.20003 12.1655 3.18619 13.0646C3.17234 13.9638 3.72309 14.5581 4.1277 14.8926C4.1277 14.8926 4.28432 14.644 4.24492 15.4194C4.20316 16.193 3.96432 19.0131 5.6793 20.728Z" fill="#A76100"/>
<path d="M8.20574 9.12041L9.83348 14.1393C9.83348 14.1393 8.98955 15.9866 9.89181 17.945C10.7941 19.9035 11.7772 20.1879 12.7386 20.1147C13.7023 20.0432 22.3601 18.2699 23.1179 17.3975C23.8757 16.5251 23.5554 16.6329 23.5554 16.6329C23.5554 16.6329 25.7993 13.5554 24.1123 11.6287L22.0477 10.7469L21.9986 10.4058C21.9986 10.4058 23.3239 10.1573 23.4873 8.75812C23.4873 8.75812 24.6391 8.68195 24.2305 7.33413C23.8195 5.98452 24.1652 5.83077 23.2207 5.44139C23.2207 5.44139 22.6747 4.83582 22.1223 4.76778C21.5699 4.69974 21.5975 4.09991 19.9613 4.41682C18.323 4.73402 16.2538 5.11066 14.9092 6.20398C14.9048 6.20247 10.1267 5.22407 8.20574 9.12041Z" fill="#F5C785"/>
<path d="M17.4548 8.80128C17.4548 8.80128 18.5127 7.0136 20.4822 6.48315C22.4537 5.95241 24.1881 6.23921 24.4199 6.536C24.6515 6.83071 24.3765 7.09772 24.0773 7.46566C23.778 7.83359 21.2474 9.75443 17.7947 9.9889L17.5925 9.89164C17.5925 9.89164 16.9553 10.9616 14.5007 11.4042C12.046 11.8467 10.9749 11.4472 10.9749 11.4472C10.9749 11.4472 11.0989 9.45532 13.569 8.81762C16.0394 8.18201 16.4024 8.15315 16.7548 8.21696C17.1093 8.28048 17.4548 8.80128 17.4548 8.80128Z" fill="white"/>
<path d="M23.2088 13.7049C23.2088 13.7049 21.9561 14.6795 19.4905 15.1659C17.0229 15.6527 16.8278 16.3605 15.1293 15.549C13.4308 14.7376 12.5288 14.319 11.9576 15.2526C11.3865 16.1862 11.9715 17.1216 13.1668 17.7288C14.362 18.336 17.3992 18.9182 21.1134 17.6125C24.8277 16.3069 24.4896 15.6705 24.9031 14.8541C25.3366 13.9989 25.4111 13.2165 25.0817 12.7508C24.7523 12.285 24.6157 11.4639 24.3048 11.5471C23.9935 11.6282 23.2299 12.4887 23.2088 13.7049Z" fill="#DB291E"/>
<path d="M13.5001 16.1492C14.3018 16.7937 15.785 16.8903 16.7824 16.9245C19.0967 17.0019 20.9346 16.6254 22.8868 15.3698C23.5393 14.9489 24.4763 13.8842 24.7564 12.9314C24.8918 12.4672 24.9361 12.0963 24.5923 11.711C24.339 11.4278 23.9928 11.7322 23.7956 12.0245C23.1694 12.9594 23.3617 13.6307 23.1185 13.7745C21.4333 14.7664 20.3007 14.982 19.1884 15.2839C18.0393 15.5951 16.7179 16.0107 15.5438 15.757C14.6693 15.5679 14.08 14.771 13.1423 14.7392C12.5309 14.7196 11.343 15.2886 11.6698 16.1662C11.9967 17.0438 13.4033 18.0461 14.2583 18.2315C16.2457 18.6615 18.4994 18.1004 20.443 17.6901C21.3271 17.5024 22.3362 17.3441 23.1191 16.8692C24.1193 16.2624 24.5384 15.5641 25.0115 14.504C25.487 13.4457 25.0228 12.464 24.9427 12.4984" stroke="black" stroke-width="0.353246" stroke-miterlimit="10" stroke-linecap="round" stroke-linejoin="round"/>
<path d="M23.7414 16.425C23.5876 16.7092 23.0855 17.3745 22.8162 17.575C22.1779 18.0533 21.7681 18.0653 20.9947 18.2865C19.5726 18.6948 18.7136 18.9257 17.2774 19.2935C16.081 19.6007 13.0137 20.4608 11.8826 20.0568C10.5462 19.5794 9.97585 18.6738 9.59585 17.1184C9.4108 16.3613 9.5277 14.4255 10.041 14.0408" stroke="black" stroke-width="0.353246" stroke-miterlimit="10" stroke-linecap="round" stroke-linejoin="round"/>
<path d="M9.83629 14.2089C9.55543 13.8489 8.59186 10.3695 8.17819 9.20058" stroke="black" stroke-width="0.353246" stroke-miterlimit="10" stroke-linecap="round" stroke-linejoin="round"/>
<path d="M8.18399 9.24007C8.17817 8.90574 8.96641 7.88492 9.18073 7.62415C10.5181 6.00155 14.4707 5.30147 15.7665 7.05295" stroke="black" stroke-width="0.353246" stroke-miterlimit="10" stroke-linecap="round" stroke-linejoin="round"/>
<path d="M14.8614 6.28489C14.9422 6.11679 15.903 5.59396 15.903 5.59396C15.903 5.59396 18.3549 4.23972 19.7469 4.58222" stroke="black" stroke-width="0.353246" stroke-miterlimit="10" stroke-linecap="round" stroke-linejoin="round"/>
<path d="M19.792 4.56103C19.792 4.56103 20.2537 4.34038 20.3946 4.31669C21.087 4.19997 22.1384 4.62553 22.6839 5.01268" stroke="black" stroke-width="0.353246" stroke-miterlimit="10" stroke-linecap="round" stroke-linejoin="round"/>
<path d="M17.0121 7.73172C17.2073 7.50117 17.6983 6.67831 18.8475 5.98314C19.9967 5.28797 21.0734 5.14369 21.7472 5.10801C22.0567 5.09078 22.9719 5.03665 23.3887 5.36732C23.8769 5.7539 24.0812 6.2666 24.0812 6.2666" stroke="black" stroke-width="0.353246" stroke-miterlimit="10" stroke-linecap="round" stroke-linejoin="round"/>
<path d="M17.5473 8.82881C17.5473 8.82881 17.8886 8.1666 18.5177 7.62166C19.1467 7.07672 19.3284 6.97954 20.0593 6.64964C21.1478 6.16011 22.3705 5.87478 23.5574 6.16073C23.7109 6.19683 24.473 6.4629 24.4911 6.65554C24.5244 7.03488 23.7706 7.6755 23.2779 8.05528C21.7436 9.23415 19.6401 9.88491 17.7401 9.93489" stroke="black" stroke-width="0.353246" stroke-miterlimit="10" stroke-linecap="round" stroke-linejoin="round"/>
<path d="M24.2533 7.23773C24.2423 7.22015 24.6028 7.77283 24.2681 8.29838C24.0222 8.6844 23.6636 8.8675 23.1875 8.92256" stroke="black" stroke-width="0.353246" stroke-miterlimit="10" stroke-linecap="round" stroke-linejoin="round"/>
<path d="M23.5585 8.87352C23.5845 8.78509 23.6297 9.45125 22.4148 10.2085C21.1976 10.964 19.4488 11.4491 18.6873 11.7408" stroke="black" stroke-width="0.353246" stroke-miterlimit="10" stroke-linecap="round" stroke-linejoin="round"/>
<path d="M21.9313 10.5488C22.0416 10.6566 22.1182 10.8581 22.1226 10.8596C22.749 11.049 23.4476 11.1774 23.9979 11.5682" stroke="black" stroke-width="0.353246" stroke-miterlimit="10" stroke-linecap="round" stroke-linejoin="round"/>
<path d="M22.5699 10.151C23.0878 10.7371 23.7181 11.278 24.1132 11.5587" stroke="black" stroke-width="0.353246" stroke-miterlimit="10" stroke-linecap="round" stroke-linejoin="round"/>
<path d="M10.8609 11.4842C10.784 11.4651 11.0629 10.3194 12.2446 9.49034C13.2831 8.76165 13.8847 8.66382 15.1417 8.41194C15.67 8.30513 16.57 8.09402 16.9341 8.25803C17.434 8.4839 17.6056 9.18989 17.6697 9.5777C17.7815 10.2495 16.2954 10.8554 15.6414 11.0962C15.2598 11.2358 14.062 11.5941 12.869 11.695C11.676 11.796 11.6297 11.5839 10.8694 11.5C10.835 11.4962 10.6013 11.6473 10.3934 11.678C10.0107 11.733 9.56754 11.688 9.56754 11.688" stroke="black" stroke-width="0.353246" stroke-miterlimit="10" stroke-linecap="round" stroke-linejoin="round"/>
<path d="M17.6767 9.95415C18.0147 10.529 17.3336 11.342 16.4135 11.6683C14.2036 12.4547 12.0045 12.5968 11.5711 12.4848" stroke="black" stroke-width="0.353246" stroke-miterlimit="10" stroke-linecap="round" stroke-linejoin="round"/>
<path d="M16.5177 11.652C16.5177 11.652 15.242 13.2597 14.4612 13.7195" stroke="black" stroke-width="0.353246" stroke-miterlimit="10" stroke-linecap="round" stroke-linejoin="round"/>
<path d="M17.0658 8.22913C17.0895 7.75497 16.8563 7.3714 16.0026 7.11797C15.1489 6.86454 13.6528 7.33606 13.6528 7.33606C13.6528 7.33606 12.3268 7.64198 11.2567 8.51078C10.1866 9.37958 9.37441 10.811 9.37441 10.811" stroke="black" stroke-width="0.353246" stroke-miterlimit="10" stroke-linecap="round" stroke-linejoin="round"/>
<path d="M20.2138 11.7253C20.7263 11.7967 21.1258 11.9707 21.2554 12.1416" stroke="black" stroke-width="0.353246" stroke-miterlimit="10" stroke-linecap="round" stroke-linejoin="round"/>
<path d="M19.6919 12.9046C19.8415 13.0049 20.1249 13.2755 20.1632 13.4611" stroke="black" stroke-width="0.353246" stroke-miterlimit="10" stroke-linecap="round" stroke-linejoin="round"/>
<path d="M18.6131 14.0693C18.5244 13.9797 18.4265 13.5775 18.4429 13.4501" stroke="black" stroke-width="0.353246" stroke-miterlimit="10" stroke-linecap="round" stroke-linejoin="round"/>
<path d="M19.2727 7.11242C19.1977 7.13761 19.1985 7.40477 19.1988 7.46836C19.1983 7.81842 19.2552 8.09267 19.365 8.42751C19.6834 9.38264 20.3869 9.62287 21.2322 9.20081C21.4744 9.08044 21.8017 8.93135 21.9553 8.69169C22.4206 7.9742 22.1797 6.59688 21.3012 6.30232C21.0988 6.23478 20.8017 6.41789 20.6301 6.4967C20.1554 6.71491 19.6391 6.86249 19.2665 7.23631" fill="black"/>
<path d="M19.2727 7.11242C19.1977 7.13761 19.1985 7.40477 19.1988 7.46836C19.1983 7.81842 19.2552 8.09267 19.365 8.42751C19.6834 9.38264 20.3869 9.62287 21.2322 9.20081C21.4744 9.08044 21.8017 8.93135 21.9553 8.69169C22.4206 7.9742 22.1797 6.59688 21.3012 6.30232C21.0988 6.23478 20.8017 6.41789 20.6301 6.4967C20.1554 6.71491 19.6391 6.86249 19.2665 7.23631" stroke="black" stroke-width="0.264936" stroke-miterlimit="10" stroke-linecap="round" stroke-linejoin="round"/>
<path d="M19.606 7.17672C19.4742 7.22037 19.3926 7.30585 19.3561 7.48695C19.3086 7.72682 19.3699 8.07896 19.703 8.01816C19.9763 7.96985 20.1203 7.50668 19.9767 7.28044C19.8376 7.0875 19.77 7.13502 19.606 7.17672Z" fill="white"/>
<path d="M12.3957 9.51179C12.4081 9.52492 12.2517 9.79043 12.2415 9.82366C12.1594 10.1362 12.1456 10.3587 12.2665 10.6665C12.7084 11.7786 13.2935 11.6533 14.281 11.3389C14.6286 11.2294 15.0508 11.1224 15.2087 10.7443C15.4828 10.0871 15.1827 9.41794 14.7105 8.97824C14.5937 8.86921 14.4183 8.75129 14.2471 8.77067C13.815 8.82178 13.3879 8.96979 12.9831 9.11048C12.8414 9.15972 12.7227 9.37548 12.5849 9.42206C12.5345 9.44173 12.3934 9.50999 12.3957 9.51179Z" fill="black" stroke="black" stroke-width="0.264936" stroke-miterlimit="10" stroke-linecap="round" stroke-linejoin="round"/>
<path d="M12.9494 9.34206C12.5345 9.28687 12.2504 9.96452 12.6955 10.1152C13.1829 10.2813 13.524 9.41764 13.0251 9.35283" fill="white"/>
<path d="M14.7554 6.18489C14.7933 6.07571 14.0802 5.33413 13.1955 4.77952C12.4848 4.33243 11.9294 4.08875 11.3572 4.00012C9.46591 3.71375 8.68872 4.35336 7.76088 5.60767C6.67929 7.06985 5.8808 8.73902 6.11266 10.5736" stroke="black" stroke-width="0.353246" stroke-miterlimit="10" stroke-linecap="round" stroke-linejoin="round"/>
<path d="M13.2746 4.71775C13.2746 4.71775 13.6688 4.08432 14.6432 3.09084C15.5934 2.12192 17.2175 1.85546 18.4193 2.70995C19.5316 3.50041 20.218 4.30933 20.218 4.30933" stroke="black" stroke-width="0.353246" stroke-miterlimit="10" stroke-linecap="round" stroke-linejoin="round"/>
<path d="M9.73377 22.1796C9.73377 22.1796 11.7535 22.0134 12.322 21.9519C15.2324 21.631 18.0614 20.842 20.4943 19.1659C20.4943 19.1659 22.2316 17.9675 22.4433 17.8259" stroke="black" stroke-width="0.353246" stroke-miterlimit="10" stroke-linecap="round" stroke-linejoin="round"/>
<path d="M7.19414 15.7634C6.93496 16.0219 6.28444 16.0268 5.59991 15.7543C5.09926 15.554 4.52253 15.1096 4.35701 14.9861C3.65733 14.4653 3.12194 14.0131 3.12408 13.0753C3.125 12.2055 5.59187 10.3911 5.90195 10.4862C6.55326 10.6869 6.77548 11.3138 6.97058 11.8978" stroke="black" stroke-width="0.353246" stroke-miterlimit="10" stroke-linecap="round" stroke-linejoin="round"/>
<path d="M4.81773 12.3008C5.20317 12.1733 5.8119 12.0194 6.1878 12.2072C6.59363 12.4121 6.70232 14.0304 6.64332 14.4331" stroke="black" stroke-width="0.353246" stroke-miterlimit="10" stroke-linecap="round" stroke-linejoin="round"/>
<path d="M4.27372 14.9698C4.18701 15.1409 3.92735 17.3487 4.69754 19.2724C5.36436 20.9389 6.28792 21.5602 7.07431 21.9714C7.52012 22.2047 9.20458 22.2375 9.73859 22.1724" stroke="black" stroke-width="0.353246" stroke-miterlimit="10" stroke-linecap="round" stroke-linejoin="round"/>
<path d="M12.1566 18.8671C11.2011 18.4601 11.052 18.2559 10.7245 17.4038C10.3967 16.5497 10.6476 15.6772 10.8457 15.4526" stroke="black" stroke-width="0.353246" stroke-miterlimit="10" stroke-linecap="round" stroke-linejoin="round"/>
</g>
<defs>
<clipPath id="clip0_1_2642">
<rect width="24.2608" height="21.1447" fill="white" transform="translate(0.490295 3.34851) rotate(-7.854)"/>
</clipPath>
</defs>
</svg>
