<svg width="84" height="84" viewBox="0 0 84 84" fill="none" xmlns="http://www.w3.org/2000/svg">
<path fill-rule="evenodd" clip-rule="evenodd" d="M19.8616 6.13337C18.2574 2.7481 14.8674 0.570043 11.1216 0.518089L3.96569 0.418836C2.49363 0.398418 1.28374 1.5752 1.26332 3.04726C1.23963 4.75578 2.98955 6.04502 4.39778 7.01275C4.48649 7.07371 4.57351 7.1386 4.65863 7.20744L25.6087 24.1512C27.377 25.5812 27.6511 28.1739 26.221 29.9422C24.7909 31.7104 22.1982 31.9845 20.43 30.5544L8.76186 21.1176C5.65444 18.6045 1.01739 20.7786 0.961962 24.7747C0.930816 27.0203 2.46433 28.9859 4.65003 29.5019L19.4345 32.9924C21.6478 33.515 23.0184 35.7328 22.4959 37.9461C21.9733 40.1594 19.7555 41.53 17.5422 41.0074L5.78809 38.2324C3.22331 37.6268 0.757014 39.551 0.720466 42.186C0.68363 44.8418 3.13178 46.8384 5.72589 46.2682L17.7007 43.636C19.9218 43.1478 22.1182 44.5526 22.6064 46.7737C23.0946 48.9948 21.6898 51.1911 19.4687 51.6793L4.32658 55.0077C2.10316 55.4965 0.508733 57.4515 0.477161 59.7278C0.420034 63.8465 5.15999 66.1952 8.40245 63.6548L20.7505 53.9804C22.5406 52.5779 25.1288 52.8921 26.5313 54.6822C27.9339 56.4723 27.6196 59.0605 25.8295 60.463L4.61963 77.0804C4.22594 77.3889 3.79365 77.6143 3.34386 77.7592C1.93438 78.2135 0.206521 79.2402 0.185984 80.721C0.170613 81.8291 1.05649 82.7399 2.16465 82.7553L10.8704 82.876C15.0033 82.9334 18.8005 80.6081 20.6281 76.9007L27.9837 61.9794C28.9892 59.9396 31.4578 59.1012 33.4976 60.1067C35.5374 61.1123 36.3758 63.5809 35.3703 65.6207L29.744 77.0339C28.3569 79.8478 30.377 83.1466 33.5139 83.1901C35.8782 83.2229 37.8189 81.3277 37.842 78.9632L37.9683 66.054C37.9905 63.78 39.852 61.9546 42.126 61.9768C44.4001 61.999 46.2255 63.8605 46.2032 66.1346L46.0767 79.0653C46.0535 81.4421 47.9562 83.3904 50.3329 83.4234C53.5199 83.4676 55.6539 80.161 54.3008 77.2752L48.7328 65.3997C47.7674 63.3407 48.654 60.8889 50.713 59.9235C52.7721 58.958 55.2239 59.8446 56.1893 61.9036L63.7489 78.0268C65.3605 81.4641 68.7932 83.6794 72.5891 83.7321L79.9276 83.8339C81.3504 83.8536 82.5197 82.7162 82.5395 81.2935C82.5627 79.6161 80.8261 78.3576 79.4142 77.4517C79.2828 77.3675 79.155 77.2749 79.0312 77.1739L58.1504 60.1448C56.3881 58.7075 56.1246 56.1137 57.5619 54.3513C58.9991 52.589 61.5929 52.3254 63.3553 53.7627L75.0121 63.2694C78.1214 65.8052 82.7845 63.6304 82.8401 59.6186C82.8712 57.3767 81.3451 55.4123 79.165 54.8882L64.3588 51.3286C62.1476 50.797 60.7861 48.5736 61.3177 46.3625C61.8493 44.1514 64.0727 42.7898 66.2838 43.3214L78.0047 46.1393C80.5702 46.756 83.0452 44.8332 83.0818 42.1949C83.1185 39.5497 80.6857 37.5574 78.0996 38.1148L66.1318 40.6942C63.9087 41.1733 61.7181 39.7596 61.239 37.5365C60.7598 35.3134 62.1736 33.1228 64.3967 32.6437L79.4708 29.3948C81.6948 28.9154 83.293 26.9638 83.3246 24.6891C83.3814 20.5959 78.6789 18.2539 75.4463 20.7653L63.1218 30.3402C61.326 31.7354 58.7391 31.4106 57.3439 29.6147C55.9487 27.8189 56.2735 25.232 58.0694 23.8368L79.347 7.30621C79.694 7.03665 80.0704 6.8313 80.4622 6.68835C81.8775 6.17189 83.596 5.1216 83.6169 3.61517C83.6329 2.46025 82.7096 1.51102 81.5547 1.495L73.0554 1.37712C68.9851 1.32066 65.2426 3.60196 63.4278 7.24576L55.9233 22.3135C54.9095 24.3492 52.4374 25.1775 50.4017 24.1637C48.3661 23.1498 47.5378 20.6777 48.5516 18.6421L54.2309 7.23903C55.6337 4.42249 53.6129 1.10745 50.4667 1.06381C48.1079 1.03109 46.1692 2.91675 46.1365 5.27554L45.9572 18.2001C45.9257 20.474 44.0568 22.2918 41.7829 22.2603C39.5089 22.2288 37.6911 20.3598 37.7227 18.0859L37.8997 5.32295C37.9337 2.87489 35.9767 0.86283 33.5286 0.828875C30.2475 0.783367 28.056 4.19446 29.4611 7.15976L35.0046 18.8583C35.9784 20.9134 35.1019 23.3688 33.0468 24.3427C30.9917 25.3165 28.5363 24.4399 27.5625 22.3849L19.8616 6.13337Z" fill="white"/>
</svg>
